<svg xmlns="http://www.w3.org/2000/svg" viewBox="0 0 51 51"><defs><style>.a{fill:#12576f;}</style></defs><title>icon_assets-rdbms</title><path class="a" d="M25.5,27.36c-10,0-18.36-2.75-21.58-6.68V27.3c1.36,4.41,10.68,8,21.58,8s20.22-3.54,21.58-8V20.67C43.86,24.61,35.54,27.36,25.5,27.36Z"/><path class="a" d="M25.5,39.22c-10,0-18.36-2.75-21.58-6.68v3.58c0,5.15,9.66,9.34,21.58,9.34s21.58-4.18,21.58-9.34V32.53C43.86,36.47,35.54,39.22,25.5,39.22Z"/><path class="a" d="M47.08,14.88c0-5.15-9.66-9.33-21.58-9.33S3.92,9.73,3.92,14.88h0v0.86c1.36,4.41,10.68,8,21.58,8s20.22-3.54,21.58-8V14.88h0Z"/></svg>