<?xml version="1.0" encoding="utf-8"?>
<!-- Generator: Adobe Illustrator 20.1.0, SVG Export Plug-In . SVG Version: 6.00 Build 0)  -->
<svg version="1.1" xmlns="http://www.w3.org/2000/svg" xmlns:xlink="http://www.w3.org/1999/xlink" x="0px" y="0px"
	 viewBox="0 0 150 150" style="enable-background:new 0 0 150 150;" xml:space="preserve">
<style type="text/css">
	.st0{fill:#E51C31;}
	.st1{fill:#152B42;}
	.st2{fill:#E31425;}
	.st3{fill:#FFFFFF;}
	.st4{font-family:'HelveticaNeue-Bold';}
	.st5{font-size:29.438px;}
	.st6{fill:#FFFFFF;stroke:#152B42;stroke-miterlimit:10;}
	.st7{fill:#FEFEFE;}
	.st8{display:none;}
	.st9{display:inline;fill:#E51C31;}
	.st10{display:inline;fill:#FDF2F4;}
	.st11{display:inline;fill:#FDF1F2;}
	.st12{display:inline;fill:#E31425;}
	.st13{display:inline;fill:#E10415;}
	.st14{display:inline;fill:#E41A2E;}
	.st15{fill:#555B60;}
	.st16{fill:#36CE74;}
	.st17{fill:#36CE74;stroke:#000000;stroke-width:4;stroke-miterlimit:10;}
	.st18{fill:none;stroke:#152B42;stroke-width:10;stroke-miterlimit:10;}
	.st19{display:inline;}
	.st20{fill:#FFFFFF;stroke:#152B42;stroke-width:1.2473;stroke-miterlimit:10;}
	.st21{font-size:20.8923px;}
</style>
<g id="Ebene_1">
	<path class="st0" d="M-944.4-195.8"/>
	<path class="st0" d="M-954.3-201.5"/>
	<g>
		<g>
			<path class="st1" d="M57.3,0c21,0.8,37.6,9.6,48.9,27.6c6.9,11,9.4,23.1,8,35.9c-1.1,10.3-4.7,19.6-11,27.9
				c-0.8,1.1-0.9,1.7,0.2,2.6c1.2,1,2.2,2.1,3.3,3.2c0.5,0.5,0.8,0.6,1.5,0.3c4.4-1.7,8.5-1,11.9,2.4c8.9,8.8,17.8,17.7,26.6,26.7
				c4.3,4.3,4.4,10.4,0.4,14.8c-2.4,2.6-4.7,5.6-8,7.2c-4,2-7.8,1.5-11.4-1.1c-0.5-0.4-1.1-0.9-1.5-1.4
				c-8.6-8.6-17.1-17.1-25.7-25.7c-3.6-3.6-4.7-7.7-2.8-12.4c0.3-0.7,0-1-0.4-1.4c-1.2-1.2-2.4-2.3-3.6-3.6c-0.7-0.7-1.2-0.8-2-0.1
				c-4.8,3.7-10,6.5-15.7,8.4c-9,3.1-18.1,4-27.5,2.5C36.4,112,25.8,106.7,17,98C9.2,90.3,4.1,81.2,1.6,70.6
				c-3.4-14.9-1.4-29,6.3-42.2C15.3,15.7,26.2,7.2,40.1,2.7C45.7,0.9,51.4,0,57.3,0z M10.5,57.3c0.2,26.2,21.1,46.8,46.8,46.8
				c25.8,0,46.5-20.7,46.8-46.6c0.3-25.6-20.8-46.8-46.7-46.9C31.5,10.6,10.8,31.1,10.5,57.3z"/>
		</g>
		<g>
			<path class="st2" d="M93.6,71.4l-63,12.9c-4.1,0.8-8.1-1.8-9-5.9l-5-24.5c-0.8-4.1,1.8-8.1,5.9-9l63-12.9c4.1-0.8,8.1,1.8,9,5.9
				l5,24.5C100.3,66.5,97.7,70.5,93.6,71.4z"/>
			<text transform="matrix(1.068 -0.2181 0.2401 1.1757 26.7001 76.5069)" class="st3 st4 st5">JOB</text>
		</g>
	</g>
</g>
<g id="Ebene_2">
	<g>
		<path class="st1" d="M-1601.8,82.1c0.5-43.3,34.7-77.4,77.6-77.3c43.2,0.1,77.5,34.5,77.3,77.7c-0.2,43.2-34.7,77.2-77.3,77.1
			C-1567.9,159.5-1601.5,124.7-1601.8,82.1z M-1524.4,115.6c11.1,0,22.2,0,33.3,0c6.5,0,11.4-4.8,11.4-11.3c0-14.7,0-29.5,0-44.2
			c0-6.4-4.8-11.3-11.2-11.3c-22.2,0-44.5,0-66.7,0c-6.2,0-11.1,4.9-11.1,11.1c0,14.8,0,29.7,0,44.5c0,6.4,4.9,11.2,11.3,11.2
			C-1546.5,115.6-1535.5,115.6-1524.4,115.6z"/>
		<path class="st1" d="M-1558.1,64.3c2.1-0.1,3.4,0.6,4.6,1.8c8.2,8.2,16.4,16.4,24.6,24.6c0.4,0.4,0.9,0.9,1.3,1.3
			c2.2,2.1,4.4,2.1,6.5,0c5.5-5.5,11-11,16.5-16.5c3.2-3.2,6.4-6.4,9.6-9.6c1.5-1.5,3.3-2.1,5.4-1.5c2.2,0.6,3.5,2.2,3.8,4.5
			c0.3,1.9-0.5,3.4-1.8,4.7c-3.1,3.1-6.2,6.3-9.3,9.3c-1.1,1-1,1.6,0,2.6c3.2,3.1,6.3,6.3,9.4,9.4c1.5,1.6,2.1,3.4,1.4,5.5
			c-0.7,2-2.1,3.2-4.3,3.6c-1.9,0.3-3.5-0.4-4.8-1.7c-3.2-3.1-6.3-6.3-9.4-9.4c-0.9-0.9-1.5-1-2.4,0c-2.2,2.3-4.5,4.6-6.8,6.9
			c-6.2,6.1-15,6.1-21.2,0c-2.4-2.3-4.7-4.6-7-7c-0.8-0.8-1.3-0.8-2.1,0c-3.2,3.3-6.4,6.5-9.7,9.7c-1.6,1.6-3.5,2.2-5.7,1.4
			c-2-0.8-3.2-2.3-3.5-4.4c-0.3-1.9,0.5-3.5,1.9-4.8c3.1-3.1,6.2-6.2,9.3-9.3c0.9-0.9,1-1.5,0-2.4c-3.2-3.1-6.3-6.2-9.5-9.4
			c-3-3.1-2-7.8,1.9-9.1C-1558.7,64.3-1558.2,64.3-1558.1,64.3z"/>
	</g>
	<g>
		<circle class="st6" cx="-1485" cy="48.7" r="13.2"/>
		<text transform="matrix(1.09 0 0 1 -1490.7826 56.1264)" class="st1" style="font-family:'Helvetica-Bold'; font-size:20px;">1</text>
	</g>
</g>
<g id="Ebene_3">
	<g>
		<path class="st7" d="M-1712.8,153.5c5.4,0,10.8-0.4,16.1-1.3c21-3.3,40.2-11.2,57.3-23.9c7.6-5.7,14.5-12.2,19.5-20.4
			c2.2-3.5,3.9-7.2,4.2-11.3c0.5-6.2-4.1-13.5-10.2-16.4c-1.5-0.7-2.9-1.3-4.5-1.8c-6.5-2.2-11-6.4-13.8-12.6
			c-2.1-4.6-4.3-9.2-6.5-13.7c-4.5-9.2-9.2-18.2-15.7-26.2c-5.4-6.6-11.8-11.6-20.1-14c-5.6-1.7-11.3-2.2-17.2-2
			c-4.1,0.1-7.9-0.8-10.8-4c-0.9-0.9-2-1.6-3.3-1.7c-4.3-0.5-8.2,2.6-8.7,6.8c-0.4,3.2-1.7,5.9-4.1,8c-1,0.9-2.1,1.8-3.1,2.7
			c-7.8,6.8-13.8,14.7-16,25.1c-1.7,8.4-1,16.8,0.4,25.2c1.6,10.3,4.1,20.4,6.8,30.4c1.7,6.5,1.1,12.6-2.5,18.4
			c-1.1,1.8-2,3.6-2.8,5.5c-3.2,8-0.2,17.1,6.9,21.3c1.4,0.8,2.9,1.6,4.5,2.1C-1728.8,152.7-1720.9,153.5-1712.8,153.5z"/>
		<path class="st1" d="M-1712.8,153.5c-8,0-16-0.8-23.6-3.7c-1.6-0.6-3.1-1.3-4.5-2.1c-7.1-4.2-10.1-13.4-6.9-21.3
			c0.8-1.9,1.7-3.7,2.8-5.5c3.5-5.8,4.2-11.9,2.5-18.4c-2.7-10.1-5.1-20.2-6.8-30.4c-1.3-8.4-2.1-16.8-0.4-25.2
			c2.1-10.4,8.2-18.3,16-25.1c1-0.9,2.1-1.8,3.1-2.7c2.4-2.1,3.7-4.8,4.1-8c0.5-4.2,4.4-7.3,8.7-6.8c1.3,0.1,2.4,0.8,3.3,1.7
			c2.9,3.2,6.7,4.1,10.8,4c5.8-0.2,11.6,0.4,17.2,2c8.3,2.4,14.7,7.4,20.1,14c6.5,8,11.2,17,15.7,26.2c2.3,4.5,4.5,9.1,6.5,13.7
			c2.8,6.3,7.3,10.5,13.8,12.6c1.5,0.5,3,1.1,4.5,1.8c6.1,2.9,10.7,10.2,10.2,16.4c-0.3,4.2-2.1,7.9-4.2,11.3
			c-5.1,8.2-11.9,14.7-19.5,20.4c-17.1,12.7-36.3,20.6-57.3,23.9C-1702.1,153.1-1707.4,153.5-1712.8,153.5z M-1712.5,141.3
			c14.1-0.1,27.3-2.8,39.9-7.9c14.3-5.7,27-13.8,37.6-25.1c2.6-2.8,5.1-5.8,6.8-9.4c1.2-2.5,0.9-3.7-1.3-5.3c-1.6-1.2-3.5-2-5.5-2.5
			c-7.7-2-15.5-1.5-23.2-0.4c-12.5,1.8-24.5,5.6-36.1,10.4c-11,4.5-21.4,10-30.5,17.8c-4.2,3.5-8,7.4-10.4,12.4
			c-2,4.3-1.4,5.8,3.1,7.3C-1725.7,140.8-1718.9,141.2-1712.5,141.3z"/>
		<path class="st7" d="M-1712.5,141.3c-6.4-0.1-13.2-0.6-19.7-2.8c-4.4-1.5-5.1-3-3.1-7.3c2.4-5,6.2-8.9,10.4-12.4
			c9.1-7.7,19.5-13.2,30.5-17.8c11.6-4.8,23.6-8.6,36.1-10.4c7.8-1.1,15.5-1.5,23.2,0.4c2,0.5,3.8,1.2,5.5,2.5
			c2.2,1.6,2.5,2.8,1.3,5.3c-1.7,3.5-4.2,6.5-6.8,9.4c-10.5,11.3-23.3,19.4-37.6,25.1C-1685.3,138.5-1698.4,141.2-1712.5,141.3z
			 M-1722.5,125.2c1.6,1.5,3.4,2.5,5.3,3.2c7.4,2.6,14.7,1.6,21.8-1.4c6.3-2.6,11.7-6.6,15-12.8c1.7-3.2,2.5-6.6,1.6-10.3
			c-0.3-1-0.6-1.2-1.6-0.8c-2.9,1.1-5.8,2.1-8.7,3.2c-9.6,3.8-18.8,8.2-27.2,14.1C-1718.5,121.9-1720.5,123.4-1722.5,125.2z"/>
		<path class="st0" d="M-1722.5,125.2c2-1.7,4-3.3,6.1-4.7c8.5-5.9,17.6-10.4,27.2-14.1c2.9-1.1,5.8-2.1,8.7-3.2
			c0.9-0.4,1.3-0.1,1.6,0.8c1,3.7,0.1,7.1-1.6,10.3c-3.3,6.2-8.6,10.1-15,12.8c-7.1,2.9-14.3,3.9-21.8,1.4
			C-1719.1,127.7-1720.9,126.7-1722.5,125.2z"/>
	</g>
	<g class="st8">
		<path class="st9" d="M-1321.5-185.3c13.8-5.2,27.6-10.4,41.4-15.6c5.7-2.2,11.5-4.3,17.2-6.5c4.4-1.7,7.7-0.6,9.3,3.5
			c3.4,8.6,6.6,17.2,9.6,25.9c1.3,3.7-0.7,6.7-5.1,8.3c-16,5.9-32.1,11.8-48.1,17.7c-3.3,1.2-6.6,2.4-9.9,3.6
			c-7.1,2.6-9.2,1.7-11.9-5.5c-0.2-1.4,0.2-3.4-0.6-4.2c-3.8-4.1-2.4-3.1-5.5-11.5C-1328.8-180.2-1332.7-183-1321.5-185.3z
			 M-1265-198.5c-0.4-1.4-0.9-1.2-1.5-0.1c-0.6,0.1-1.1,0.2-1.7,0.3c-4.4-0.6-8.1,1.2-11.6,3.6c0,0,0.2,0.5,0.4,0.7
			c2.3,8.9,6,17.3,9.4,26.2c2.3-2.6,5-3.1,7.7-3.7c3.5-0.7,6.4-2.9,7.8-5.8c1.2-2.5-0.4-5.6-2-8.2c-0.9-1.4-3.3-0.6-3.6-2.6
			c1.9-0.8,3.2-1.8,1-3.7c-0.1-0.6-0.2-1.1-0.3-1.7c1.2-2.7,0.1-3.9-2.6-3.8l0.1,0c-0.2-2.3-1.5-1.9-2.9-1.2L-1265-198.5z
			 M-1278.7-181.6c-1.7-2.6-2.8-6.1-5.6-7.5c-4.7-2.4-9.5-1.1-13.5,2c-3,2.3-2.9,6.1-2.5,9.6c0.4,4.5,2.8,8.2,4.8,12.1
			c0.5,1,1.9,1.9,3,2.3c6.9,2.7,12.2-0.7,14.9-6.3c1.9-1,2.7-2.1,0.7-3.8c-0.3-1.9-0.6-3.8-1-5.7
			C-1276.4-180.3-1276.4-181.3-1278.7-181.6z M-1299.4-163.2c-2.3-6.1-4.6-12.3-6.7-18.4c-0.6-1.7-1.2-2.3-3.1-1.5
			c-1.8,0.8-2.5,1.3-1.6,3.4c2.1,4.7,3,9.8,5.3,14.5c0.7,1.5,1.9,3.4,0,4.7c-1.8,1.2-3-0.5-3.9-1.6c-1.6-1.9-3.1-0.6-4.2,0.2
			c-1.8,1.2-0.7,3.5,0,4.2c2.8,2.8,6.3,3.1,10,1.5C-1300.5-157.6-1298.6-159.5-1299.4-163.2z"/>
		<path class="st10" d="M-1259.4-193.6c0.1,0.6,0.2,1.1,0.3,1.7c-0.3,1.2-0.6,2.5-1,3.7c0.3,2,2.7,1.2,3.6,2.6
			c1.6,2.6,3.2,5.7,2,8.2c-1.3,2.9-4.3,5.1-7.8,5.8c-2.7,0.6-5.4,1.1-7.7,3.7c-3.4-8.9-7.1-17.3-9.4-26.2c3.7-1.4,7.5-2.9,11.2-4.3
			c0.6-0.1,1.1-0.2,1.7-0.3c0.5,0,1,0.1,1.5,0.1c0,0,0-0.1,0-0.1c1,0.4,1.9,0.8,2.9,1.2c0,0-0.1,0-0.1,0
			C-1261.2-196.1-1260.3-194.9-1259.4-193.6z M-1265.9-175.3c2.5-1.4,6.5-1,6-5.3c-0.3-2.2-2.1-3.4-4.2-2.6
			c-1.8,0.7-5.4-0.1-4.9,3.3C-1268.8-178.3-1269-175.2-1265.9-175.3z M-1268.8-192.9c-0.7,1-4.4-0.3-4,2.9c0.2,1.3-0.2,4.7,3.2,3.9
			c2.4-0.6,4.9-1.7,4.9-4.6C-1264.7-191.7-1265.5-194.4-1268.8-192.9z"/>
		<path class="st11" d="M-1277.6-169.3c-2.7,5.6-8,9-14.9,6.3c-1.2-0.5-2.5-1.3-3-2.3c-2-3.8-4.3-7.6-4.8-12.1
			c-0.4-3.5-0.5-7.3,2.5-9.6c4-3.1,8.8-4.3,13.5-2c2.9,1.4,3.9,4.9,5.6,7.5c0.1,1-0.1,2,0.9,2.7c0.3,1.9,0.6,3.8,1,5.7
			C-1277.1-171.9-1277.3-170.6-1277.6-169.3z M-1295.2-177.4c0.6,2.4,1.5,5.3,3.3,7.8c1.5,2,3.5,3.1,6.1,2.1c2.7-1,3.9-3,3.7-5.8
			c-0.2-3.1-1.3-6-2.9-8.6c-1.6-2.7-3.8-4.7-7.1-3.4C-1295.3-184-1295.9-181.2-1295.2-177.4z"/>
		<path class="st11" d="M-1299.4-163.2c0.8,3.8-1,5.6-4.2,7c-3.7,1.6-7.2,1.3-10-1.5c-0.7-0.7-1.8-3,0-4.2c1.1-0.7,2.6-2.1,4.2-0.2
			c1,1.1,2.2,2.8,3.9,1.6c1.9-1.3,0.7-3.3,0-4.7c-2.3-4.7-3.2-9.8-5.3-14.5c-0.9-2.1-0.2-2.7,1.6-3.4c1.9-0.8,2.5-0.2,3.1,1.5
			C-1304-175.5-1301.7-169.4-1299.4-163.2z"/>
		<path class="st12" d="M-1268.2-198.3c-3.7,1.4-7.5,2.9-11.2,4.3c-0.1-0.2-0.4-0.7-0.4-0.7
			C-1276.2-197.1-1272.6-198.9-1268.2-198.3z"/>
		<path class="st12" d="M-1259.4-193.6c-0.9-1.3-1.8-2.5-2.6-3.8C-1259.3-197.5-1258.3-196.3-1259.4-193.6z"/>
		<path class="st13" d="M-1277.6-169.3c0.2-1.3,0.5-2.6,0.7-3.8C-1274.9-171.5-1275.6-170.3-1277.6-169.3z"/>
		<path class="st12" d="M-1260.1-188.2c0.3-1.2,0.6-2.5,1-3.7C-1257-190-1258.2-189-1260.1-188.2z"/>
		<path class="st13" d="M-1277.8-178.9c-0.4-1-0.8-1.8-0.9-2.7C-1276.4-181.3-1276.4-180.3-1277.8-178.9z"/>
		<path class="st12" d="M-1262-197.4c-1-0.4-1.9-0.8-2.9-1.2C-1263.5-199.2-1262.2-199.7-1262-197.4z"/>
		<path class="st14" d="M-1265.9-175.3c-3.1,0.1-2.9-3.1-3.1-4.6c-0.4-3.4,3.1-2.6,4.9-3.3c2.1-0.8,3.9,0.5,4.2,2.6
			C-1259.3-176.3-1263.3-176.7-1265.9-175.3z"/>
		<path class="st9" d="M-1268.8-192.9c3.3-1.5,4.1,1.2,4.1,2.3c0,2.9-2.4,4-4.9,4.6c-3.4,0.8-3-2.6-3.2-3.9
			C-1273.1-193.2-1269.5-191.9-1268.8-192.9z"/>
		<path class="st14" d="M-1295.2-177.4c-0.7-3.8-0.1-6.6,3.2-7.8c3.4-1.3,5.6,0.6,7.1,3.4c1.5,2.7,2.7,5.5,2.9,8.6
			c0.2,2.8-1,4.8-3.7,5.8c-2.6,1-4.6-0.2-6.1-2.1C-1293.7-172.1-1294.6-175-1295.2-177.4z"/>
	</g>
	
		<text transform="matrix(1.0139 -0.4001 0.3671 0.9302 -1712.0093 97.5074)" class="st3" style="font-family:'Helvetica-Bold'; font-size:20px;">JOB</text>
</g>
<g id="Ebene_4">
	<g>
		<path class="st1" d="M-1612.5,327.1c0,20.3,0,40.7,0,61c0,11-6.2,17.2-17.2,17.3c-32.5,0-65.1,0-97.6,0
			c-10.9,0-17.2-6.3-17.2-17.3c0-40.9,0-81.8,0-122.7c0-10.6,6.5-17.1,17.1-17.1c32.5,0,65.1,0,97.6,0c11,0,17.3,6.3,17.3,17.2
			C-1612.5,286-1612.5,306.6-1612.5,327.1z M-1618.6,326.9c0-20.3,0-40.7,0-61c0-8-3.6-11.6-11.7-11.6c-32,0-64.1,0-96.1,0
			c-8.5,0-11.9,3.6-11.9,12.1c0,40.3,0,80.6,0,120.9c0,8.3,3.5,11.9,11.8,11.9c32,0,64.1,0,96.1,0c8.5,0,11.9-3.4,11.9-12.1
			C-1618.6,367.1-1618.6,347-1618.6,326.9z"/>
		<g>
			<path class="st1" d="M-1693.4,291.9c0.4-1.4-0.5-1.2-1.2-1.1c-0.6,0.1-1.9-0.5-1.7,0.7c0.5,3.2-1.4,5.6-2.6,8.1"/>
			<path class="st1" d="M-1695.5,308.9c-6,0-11.3-0.4-16.5-2.2c-2.8-1-2.7-3.2-1.9-5.3c1.6-4.4,4.7-7.4,8.7-9.7
				c1.5-0.9,3.2-1.6,5-2.5c-3.5-3.7-6-7.7-5.3-12.9c0.4-2.7,1.7-5,3.9-6.8c4.3-3.5,10.7-3.1,14.5,0.9c4.6,4.8,3.8,11.4-2.4,18.7
				c2.8,1.4,5.9,2.5,8.2,4.7c1,1,2,1.9,2.9,3c5.1,6.5,4.1,9.4-3.8,11.1c-3.7,0.8-7.5,1.1-11.4,1.1"/>
		</g>
		<path class="st1" d="M-1678.5,322.7c-10.2,0-20.3,0-30.5,0c-1.1,0-2.3-0.1-3.4-0.3c-1.3-0.3-1.8-1.3-1.8-2.6
			c0-1.3,0.7-2.3,1.9-2.6c1.1-0.3,2.3-0.3,3.4-0.3c20.3,0,40.7,0,61,0c1,0,2.1-0.1,3,0.1c1.3,0.3,2.4,1.1,2.4,2.6
			c0,1.6-0.9,2.6-2.5,2.9c-1,0.2-2,0.1-3,0.1C-1658.2,322.8-1668.4,322.7-1678.5,322.7z"/>
		<path class="st1" d="M-1678.1,330.3c10.4,0,20.8,0,31.3,0c2,0,4.1,0,4.3,2.6c0.2,2.2-1.5,3-3.5,3c-21.5,0-42.9,0-64.4,0
			c-2,0-3.7-0.5-3.7-2.8c0-2.4,1.8-2.8,3.7-2.8C-1699.7,330.3-1688.9,330.3-1678.1,330.3z"/>
		<path class="st1" d="M-1678.5,343.5c10.5,0,21.1,0,31.6,0c1.7,0,3.6-0.2,4.1,1.9c0.8,3.1-1.3,3.6-3.8,3.6c-11.6,0-23.1,0-34.7,0
			c-9.5,0-19.1,0-28.6,0c-2.1,0-4.5,0.1-4.5-2.8c0-2.8,2.4-2.7,4.5-2.7C-1699.4,343.5-1688.9,343.5-1678.5,343.5z"/>
		<path class="st1" d="M-1661.9,362.1c-5.1,0-10.2,0-15.2,0c-2,0-4.1-0.2-4-2.9c0.1-2.3,1.9-2.7,3.9-2.7c10.3,0,20.6,0,30.9,0
			c2,0,3.7,0.5,3.8,2.8c0.1,2.3-1.7,2.8-3.7,2.8C-1651.5,362.1-1656.7,362.1-1661.9,362.1z"/>
		<path class="st1" d="M-1656.8,382.5c3.5,0,7.1,0,10.6,0c2,0,3.6,0.7,3.6,3c0,2.1-1.6,2.8-3.4,2.8c-7.3,0.1-14.7,0.1-22,0
			c-1.7,0-3.3-0.8-3.2-2.9c0.1-2,1.6-2.8,3.4-2.8C-1664.1,382.5-1660.5,382.5-1656.8,382.5C-1656.8,382.5-1656.8,382.5-1656.8,382.5
			z"/>
	</g>
</g>
<g id="Ebene_5">
	<g>
		<path class="st1" d="M-973.4,327.8c0.4-1.2-0.5-1-1.1-1c-0.6,0.1-1.7-0.4-1.6,0.6c0.5,2.9-1.2,5-2.3,7.3"/>
		<path class="st15" d="M-975.3,343.1c-5.4,0-10.2-0.3-14.8-2c-2.5-0.9-2.4-2.8-1.7-4.8c1.4-3.9,4.2-6.7,7.8-8.7
			c1.4-0.8,2.8-1.4,4.5-2.2c-3.1-3.3-5.4-6.9-4.8-11.5c0.3-2.5,1.5-4.5,3.5-6.1c3.8-3.1,9.6-2.8,13,0.8c4.1,4.3,3.4,10.3-2.2,16.8
			c2.5,1.3,5.3,2.2,7.4,4.2c0.9,0.9,1.8,1.7,2.6,2.7c4.6,5.8,3.7,8.4-3.4,9.9c-3.3,0.7-6.7,1-10.3,1"/>
	</g>
	<g>
		<path class="st1" d="M-1053.4,341.4c0.3-1.2-0.4-1-1-0.9c-0.5,0.1-1.6-0.4-1.5,0.6c0.4,2.7-1.2,4.7-2.2,6.8"/>
		<path class="st15" d="M-1055.2,355.7c-5.1,0-9.6-0.3-13.9-1.9c-2.3-0.8-2.2-2.7-1.6-4.5c1.3-3.7,4-6.3,7.3-8.2
			c1.3-0.7,2.7-1.3,4.2-2.1c-2.9-3.1-5.1-6.5-4.5-10.8c0.3-2.3,1.4-4.2,3.3-5.7c3.6-2.9,9-2.6,12.2,0.8c3.9,4.1,3.2,9.6-2,15.8
			c2.4,1.2,5,2.1,6.9,3.9c0.9,0.8,1.7,1.6,2.4,2.5c4.3,5.4,3.5,7.9-3.2,9.3c-3.1,0.7-6.3,1-9.6,0.9"/>
	</g>
	<g>
		<path class="st1" d="M-1011.6,362.5c0.7-2.6-1-2.2-2.3-2c-1.2,0.1-3.6-0.9-3.3,1.3c1,6-2.6,10.5-4.9,15.2"/>
		<path class="st1" d="M-1015.7,394.5c-11.4,0.1-21.4-0.7-31-4.2c-5.2-1.9-5-5.9-3.5-10c3-8.2,8.9-14,16.3-18.3
			c2.9-1.6,5.9-2.9,9.4-4.6c-6.6-6.9-11.3-14.5-10-24.2c0.7-5.2,3.2-9.4,7.3-12.7c8.1-6.6,20.1-5.8,27.3,1.7
			c8.7,9.1,7.1,21.5-4.5,35.2c5.3,2.7,11.1,4.6,15.5,8.8c1.9,1.8,3.8,3.6,5.5,5.7c9.7,12.1,7.8,17.7-7.2,20.8
			c-7,1.5-14.1,2.1-21.5,2"/>
	</g>
	<g id="XMLID_1_">
	</g>
	<g>
		<path class="st16" d="M-989.4,387.4c-0.7-0.7-1.4-1.4-2.1-2.1c-2.9-2.9-5.8-5.8-8.7-8.7c-1.5-1.5-3.3-2.2-5.4-2.2
			c-3,0-5.8,1.8-7,4.6c-1.2,2.8-0.6,6.1,1.6,8.3c5.3,5.4,10.7,10.7,16.1,16.1c0.9,0.9,1.9,1.6,3.1,1.9c3.1,0.9,5.7,0.2,8-2
			c6.6-6.6,13.2-13.2,19.9-19.9c2.3-2.3,4.6-4.6,6.9-6.9c3.6-3.8,2.5-10-2.3-12.2c-2.9-1.4-6.3-0.7-8.7,1.7c-1.7,1.7-3.3,3.3-5,5
			c-4,4-8,8-12,12C-986.5,384.5-987.9,385.9-989.4,387.4z"/>
		<path class="st17" d="M-989.4,387.4c1.5-1.5,2.9-2.9,4.4-4.4c4-4,8-8,12-12c1.7-1.7,3.3-3.3,5-5c2.4-2.4,5.8-3.1,8.7-1.7
			c4.7,2.2,5.9,8.4,2.3,12.2c-2.3,2.3-4.6,4.6-6.9,6.9c-6.6,6.6-13.2,13.2-19.9,19.9c-2.3,2.3-4.9,3-8,2c-1.2-0.4-2.2-1-3.1-1.9
			c-5.4-5.4-10.7-10.7-16.1-16.1c-2.2-2.2-2.8-5.4-1.6-8.3c1.2-2.8,3.9-4.6,7-4.6c2.1,0,3.9,0.8,5.4,2.2c2.9,2.9,5.8,5.8,8.7,8.7
			C-990.8,386-990.1,386.7-989.4,387.4z"/>
	</g>
	<circle class="st18" cx="-1016.1" cy="351.5" r="75.2"/>
</g>
<g id="Ebene_6" class="st8">
	<g class="st19">
		<path class="st1" d="M-908.9,57.1C-908.7,26.5-877.4,2.6-842,5c38.8,2.6,64.9,31.1,57.1,62.4c-2.5,10.1-6.9,19.7-12,29.1
			c-12.3,22.3-28,43-45.1,63c-3.3,3.8-5,3.8-8.2,0.1c-15.6-18.3-30.1-37.2-41.9-57.4c-7.1-12.2-13.2-24.6-15.9-38
			C-908.6,61.4-908.7,58.7-908.9,57.1z M-846.2,18.9c-25.2,0-45.7,16.7-45.7,37.1c0.1,20.4,19.3,37.9,47.2,37.5
			c23.6-0.4,44.5-16,44.3-38.4C-800.6,35.5-821.5,18.9-846.2,18.9z"/>
		<path class="st3" d="M-846.2,18.9c24.8,0,45.6,16.6,45.8,36.2c0.2,22.4-20.7,38.1-44.3,38.4c-27.9,0.4-47.1-17.1-47.2-37.5
			C-892,35.6-871.4,18.9-846.2,18.9z M-819.2,56.6c0-5.4,0-10,0-14.6c0-1.6-0.6-2.5-2.7-2.5c-16.1,0-32.2,0-48.4,0.1
			c-1,0-2.7,1.3-2.7,2c-0.2,4.8-0.1,9.6-0.1,14.9c7.5,0.9,15,1.8,22.4,2.8c-0.2-0.4-0.3-0.8-0.5-1.2c1.6-1,3-2.4,4.7-2.9
			c3.5-0.9,4.4,1.5,4.8,4.1C-834.1,58.4-826.8,57.5-819.2,56.6z M-873.1,58.8c0,3.7,0.3,7.4-0.1,11.2c-0.3,3,1.2,3.7,4.5,3.6
			c9.8-0.1,19.6-0.1,29.4-0.1c5.6,0,11.3,0.1,16.9-0.1c1.1,0,2.9-1.1,3-1.8c0.3-4.3,0.1-8.6,0.1-12.9c-7.7,0.9-15.2,1.8-22.8,2.7
			c0.2,2.2-0.8,3.6-3.7,3.8c-3.6,0.2-4.4-1.8-4.7-3.8C-858.1,60.6-865.5,59.8-873.1,58.8z M-855.6,38.6c6.2-2.7,12.4-2.5,19,0.4
			c-1.5-4.2-3-5.4-6.5-5.3C-847.9,33.8-853.7,32.1-855.6,38.6z M-843.5,60.5c0-0.6,0-1.1,0-1.6c0.2-1.7-0.4-2.7-2.8-2.6
			c-2.4,0-2.6,1.1-2.5,2.6c0,1.1-0.4,2.4,0.1,3.3c0.4,0.8,1.8,1.9,2.8,1.9C-842.5,64.2-843.9,61.8-843.5,60.5z"/>
		<path class="st1" d="M-819.2,56.6c-7.5,0.9-14.8,1.8-22.4,2.8c-0.5-2.6-1.3-4.9-4.8-4.1c-1.8,0.4-3.2,1.9-4.7,2.9
			c0.2,0.4,0.3,0.8,0.5,1.2c-7.4-0.9-14.8-1.8-22.4-2.8c0-5.3-0.1-10.1,0.1-14.9c0-0.7,1.8-2,2.7-2c16.1-0.1,32.2-0.1,48.4-0.1
			c2.1,0,2.8,0.9,2.7,2.5C-819.3,46.6-819.2,51.2-819.2,56.6z"/>
		<path class="st1" d="M-873.1,58.8c7.6,0.9,15,1.8,22.6,2.7c0.3,2,1,4.1,4.7,3.8c3-0.2,3.9-1.7,3.7-3.8c7.7-0.9,15.1-1.8,22.8-2.7
			c0,4.2,0.1,8.6-0.1,12.9c0,0.7-1.9,1.7-3,1.8c-5.6,0.2-11.3,0.1-16.9,0.1c-9.8,0-19.6-0.1-29.4,0.1c-3.3,0-4.8-0.6-4.5-3.6
			C-872.8,66.3-873.1,62.5-873.1,58.8z"/>
		<path class="st1" d="M-855.6,38.6c1.9-6.5,7.7-4.8,12.5-4.9c3.5-0.1,5,1.1,6.5,5.3C-843.2,36.1-849.4,35.9-855.6,38.6z"/>
	</g>
	<g class="st19">
		<circle class="st20" cx="-810.9" cy="29.8" r="16.4"/>
		<text transform="matrix(1.09 0 0 1 -818.0844 38.9977)" class="st2" style="font-family:'Helvetica-Bold'; font-size:24.947px;">1</text>
	</g>
</g>
<g id="Ebene_7" class="st8">
	<g class="st19">
		<g>
			<path class="st1" d="M138,75.3c0,19.4,0,38.8,0,58.2c0,10.5-6,16.5-16.4,16.5c-31,0-62.1,0-93.1,0C18,150,12,144,12,133.5
				c0-39,0-78.1,0-117.1C12,6.2,18.2,0,28.3,0c31,0,62.1,0,93.1,0C131.9,0,138,6,138,16.4C138,36,138,55.7,138,75.3z M132.1,75.1
				c0-19.4,0-38.8,0-58.2c0-7.6-3.5-11-11.2-11c-30.6,0-61.1,0-91.7,0c-8.1,0-11.4,3.4-11.4,11.6c0,38.5,0,76.9,0,115.4
				c0,8,3.3,11.3,11.2,11.3c30.6,0,61.1,0,91.7,0c8.1,0,11.3-3.2,11.3-11.5C132.1,113.5,132.1,94.3,132.1,75.1z"/>
			<path class="st1" d="M74.9,71.1c-9.7,0-19.4,0-29.1,0c-1.1,0-2.2-0.1-3.2-0.3c-1.2-0.3-1.7-1.3-1.8-2.5c0-1.2,0.6-2.2,1.8-2.4
				c1-0.3,2.2-0.2,3.2-0.2c19.4,0,38.8,0,58.2,0c1,0,2-0.1,2.9,0.1c1.3,0.3,2.3,1,2.3,2.4c0,1.6-0.9,2.5-2.3,2.8
				c-0.9,0.2-1.9,0.1-2.9,0.1C94.4,71.1,84.6,71.1,74.9,71.1z"/>
			<path class="st1" d="M75.3,78.3c9.9,0,19.9,0,29.8,0c1.9,0,3.9,0,4.1,2.5c0.2,2.1-1.4,2.9-3.4,2.9c-20.5,0-41,0-61.5,0
				c-1.9,0-3.5-0.4-3.6-2.7c0-2.3,1.7-2.7,3.5-2.7C54.7,78.3,65,78.3,75.3,78.3z"/>
			<path class="st1" d="M74.9,90.9c10.1,0,20.1,0,30.2,0c1.6,0,3.4-0.2,3.9,1.8c0.7,2.9-1.2,3.5-3.6,3.5c-11,0-22.1,0-33.1,0
				c-9.1,0-18.2,0-27.3,0c-2,0-4.3,0.1-4.3-2.6c0-2.7,2.3-2.6,4.3-2.6C55,90.9,65,90.9,74.9,90.9z"/>
			<path class="st1" d="M90.8,108.7c-4.8,0-9.7,0-14.5,0c-1.9,0-3.9-0.2-3.8-2.8c0.1-2.2,1.8-2.6,3.7-2.6c9.8,0,19.6,0,29.5,0
				c1.9,0,3.6,0.5,3.6,2.6c0.1,2.2-1.6,2.7-3.5,2.7C100.8,108.7,95.8,108.7,90.8,108.7z"/>
			<path class="st1" d="M95.7,128.1c3.4,0,6.8,0,10.2,0c1.9,0,3.5,0.7,3.5,2.8c0,2-1.6,2.7-3.2,2.7c-7,0.1-14,0.1-21,0
				c-1.7,0-3.2-0.8-3.1-2.8c0.1-2,1.5-2.7,3.2-2.7C88.7,128.1,92.2,128.1,95.7,128.1C95.7,128.1,95.7,128.1,95.7,128.1z"/>
		</g>
		<g>
			<path class="st1" d="M100,53.2c0-0.2,0-0.3,0-0.4c0-2.3,0-4.5,0-6.8c0-5.1,0-10.2,0-15.3c0-1.7,0-3.3,0-5
				c-0.1-1.3-1.2-2.7-3.7-2.6c-6.1,0.1-12.1,0-18.2,0c-2.7,0-5.5,0-8.2,0c-1,0-1.7,0.3-2.3,0.8c-0.7,0.6-0.9,1.4-0.9,2.2
				c0,3.7,0,7.4,0,11.1c0,5.2,0,10.4,0,15.5c0,0.3,0.1,0.4,0.5,0.4c9.9,0,19.8,0,29.7,0C97.9,53.2,98.9,53.2,100,53.2z M64.9,46.3
				c0-2.1,0-4.2,0-6.3c0-0.3,0-0.4-0.5-0.4c-3,0-6.1,0-9.1,0c-0.4,0-0.5,0.1-0.5,0.4c0,4.2,0,8.3,0,12.5c0,0.3,0.1,0.4,0.6,0.4
				c3,0,6,0,9,0c0.4,0,0.6-0.1,0.6-0.4C64.9,50.4,64.9,48.4,64.9,46.3z M83.3,21.5c0-0.2,0-0.3,0-0.4c0-0.9,0-1.8,0-2.6
				c0-1.8,0-3.5,0-5.3c-0.1-1.6-1.5-2.6-3.7-2.6c-4,0-8,0-12,0c-0.4,0-0.6-0.1-0.6-0.4c0-0.8,0-1.6,0-2.4c0-0.2,0-0.4-0.1-0.6
				c-0.1-0.1-0.4-0.3-0.7-0.3c-0.2,0-0.5,0.2-0.6,0.3c-0.1,0.2-0.1,0.4-0.1,0.6c0,0.8,0,1.6,0,2.4c0,0.3-0.1,0.4-0.6,0.4
				c-2.4,0-4.9,0-7.3,0c-1.5,0-2.9,0-4.4,0c-0.9,0-1.5,0.2-2.1,0.7c-0.9,0.7-1.2,1.5-1.1,2.4c0,1.8,0,3.6,0,5.5c0,4.8,0,9.6,0,14.3
				c0,5.1,0,10.2,0,15.4c0,1.3,0,2.7,0,4c0,0.1,0.1,0.3,0.2,0.3c0.4,0,0.8,0,1.3,0c0-0.2,0-0.3,0-0.4c0-5,0-10.1,0-15.1
				c0-7.7,0-15.4,0-23.1c0-0.4,0-0.9,0.1-1.3c0.1-0.8,0.8-1.2,1.8-1.2c0.9,0,1.7,0,2.6,0c8,0,16,0,24,0c0.7,0,1.2,0.2,1.5,0.6
				c0.2,0.3,0.3,0.6,0.3,1c0,2,0,4,0,6c0,0.6,0,1.3,0,1.9C82.3,21.5,82.8,21.5,83.3,21.5z M66.4,15.1c-3.7,0-7.3,0-11,0
				c-0.5,0-0.6,0.1-0.6,0.4c0,1.3,0,2.6,0,3.9c0,0.6,0,0.6,0.8,0.6c0.1,0,0.1,0,0.2,0c3.5,0,6.9,0,10.4,0c3.7,0,7.4,0,11,0
				c0.6,0,0.7-0.1,0.7-0.5c0-1.3,0-2.7,0-4c0-0.4-0.1-0.5-0.7-0.5C73.7,15.1,70,15.1,66.4,15.1z M66,23.2c-0.1,0-0.1,0-0.2,0
				c-3.5,0-7.1,0-10.6,0c-0.4,0-0.4,0.1-0.4,0.3c0,1.4,0,2.8,0,4.2c0,0.3,0.2,0.4,0.5,0.4c3,0,6,0,8.9,0c0.5,0,0.7-0.1,0.7-0.5
				C64.9,26.1,64.8,24.6,66,23.2z M59.9,31.4C59.9,31.4,59.9,31.4,59.9,31.4c-1.5,0-3,0-4.5,0c-0.4,0-0.6,0.1-0.6,0.4
				c0,1.4,0,2.7,0,4.1c0,0.3,0.1,0.4,0.5,0.4c3,0,6.1,0,9.1,0c0.4,0,0.6-0.1,0.6-0.4c0-1.4,0-2.7,0-4.1c0-0.3-0.1-0.4-0.5-0.4
				C63,31.4,61.4,31.4,59.9,31.4z"/>
			<path class="st1" d="M100,53.2c-1.1,0-2.1,0-3.1,0c-9.9,0-19.8,0-29.7,0c-0.4,0-0.5-0.1-0.5-0.4c0-5.2,0-10.4,0-15.5
				c0-3.7,0-7.4,0-11.1c0-0.8,0.3-1.5,0.9-2.2c0.6-0.6,1.4-0.8,2.3-0.8c2.7,0,5.5,0,8.2,0c6.1,0,12.1,0.1,18.2,0
				c2.5,0,3.7,1.3,3.7,2.6c0.1,1.7,0,3.3,0,5c0,5.1,0,10.2,0,15.3c0,2.3,0,4.5,0,6.8C100.1,52.9,100,53,100,53.2z M95.2,43.6
				c0,0.2,0,0.4,0,0.5c0,2.4,0,4.8,0,7.2c0,0.3,0.1,0.4,0.5,0.4c0.6,0,1.3,0,1.9,0c0.8,0,0.8,0,0.8-0.6c0-4.5,0-9.1,0-13.6
				c0-3.8,0-7.6,0-11.3c0-1.1-0.7-1.7-2.4-1.7c-3.8,0-7.6,0-11.4,0c-4.9,0-9.7,0-14.6,0c-1.1,0-1.7,0.4-1.9,1.2
				c0,0.2-0.1,0.4-0.1,0.5c0,8.3,0,16.6,0,24.9c0,0.6,0,0.6,0.8,0.6c6.6,0,13.3,0,19.9,0c0.5,0,0.6-0.1,0.6-0.4c0-1.7,0-3.3,0-5
				c0-0.9,0-1.8,0-2.7C91.4,43.6,93.3,43.6,95.2,43.6z"/>
			<path class="st1" d="M64.9,46.3c0,2.1,0,4.1,0,6.2c0,0.3-0.1,0.4-0.6,0.4c-3,0-6,0-9,0c-0.4,0-0.6-0.1-0.6-0.4
				c0-4.2,0-8.3,0-12.5c0-0.3,0.1-0.4,0.5-0.4c3,0,6.1,0,9.1,0c0.5,0,0.5,0.2,0.5,0.4C64.9,42.1,64.9,44.2,64.9,46.3z"/>
			<path class="st1" d="M83.3,21.5c-0.5,0-1,0-1.5,0c0-0.7,0-1.3,0-1.9c0-2,0-4,0-6c0-0.3-0.1-0.7-0.3-1c-0.3-0.4-0.8-0.6-1.5-0.6
				c-8,0-16,0-24,0c-0.9,0-1.7,0-2.6,0c-1,0-1.7,0.4-1.8,1.2c-0.1,0.4-0.1,0.9-0.1,1.3c0,7.7,0,15.4,0,23.1c0,5,0,10.1,0,15.1
				c0,0.1,0,0.3,0,0.4c-0.5,0-0.9,0-1.3,0c-0.1,0-0.2-0.2-0.2-0.3c0-1.3,0-2.7,0-4c0-5.1,0-10.2,0-15.4c0-4.8,0-9.6,0-14.3
				c0-1.8,0-3.6,0-5.5c0-0.9,0.3-1.7,1.1-2.4c0.6-0.5,1.3-0.7,2.1-0.7c1.5,0,2.9,0,4.4,0c2.4,0,4.9,0,7.3,0c0.4,0,0.6-0.1,0.6-0.4
				c0-0.8,0-1.6,0-2.4c0-0.2,0-0.4,0.1-0.6C65.7,7,66,6.9,66.2,6.9c0.2,0,0.5,0.1,0.7,0.3C67,7.3,67,7.5,67,7.7c0,0.8,0,1.6,0,2.4
				c0,0.3,0.2,0.4,0.6,0.4c4,0,8,0,12,0c2.2,0,3.6,1,3.7,2.6c0.1,1.8,0,3.5,0,5.3c0,0.9,0,1.8,0,2.6C83.3,21.2,83.3,21.3,83.3,21.5z
				"/>
			<path class="st1" d="M66.4,15.1c3.6,0,7.3,0,10.9,0c0.5,0,0.7,0.1,0.7,0.5c0,1.3,0,2.7,0,4c0,0.4-0.1,0.5-0.7,0.5
				c-3.7,0-7.4,0-11,0c-3.5,0-6.9,0-10.4,0c-0.1,0-0.1,0-0.2,0c-0.8,0-0.8,0-0.8-0.6c0-1.3,0-2.6,0-3.9c0-0.3,0.1-0.4,0.6-0.4
				C59.1,15.1,62.7,15.1,66.4,15.1z"/>
			<path class="st1" d="M66,23.2c-1.2,1.4-1.1,2.9-1.1,4.4c0,0.4-0.2,0.5-0.7,0.5c-3,0-6,0-8.9,0c-0.4,0-0.5-0.1-0.5-0.4
				c0-1.4,0-2.8,0-4.2c0-0.2,0-0.3,0.4-0.3c3.5,0,7.1,0,10.6,0C65.9,23.2,65.9,23.2,66,23.2z"/>
			<path class="st1" d="M59.9,31.4c1.5,0,3,0,4.5,0c0.4,0,0.5,0.1,0.5,0.4c0,1.4,0,2.8,0,4.1c0,0.3-0.2,0.4-0.6,0.4
				c-3,0-6.1,0-9.1,0c-0.4,0-0.5-0.1-0.5-0.4c0-1.4,0-2.8,0-4.1c0-0.3,0.2-0.4,0.6-0.4C56.9,31.4,58.4,31.4,59.9,31.4
				C59.9,31.4,59.9,31.4,59.9,31.4z"/>
			<path class="st3" d="M95.2,43.6c-1.9,0-3.8,0-5.7,0c0,0.9,0,1.8,0,2.7c0,1.7,0,3.3,0,5c0,0.3-0.1,0.4-0.6,0.4
				c-6.6,0-13.3,0-19.9,0c-0.7,0-0.8,0-0.8-0.6c0-8.3,0-16.6,0-24.9c0-0.2,0-0.4,0.1-0.5c0.2-0.8,0.8-1.2,1.9-1.2
				c4.9,0,9.7,0,14.6,0c3.8,0,7.6,0,11.4,0c1.7,0,2.4,0.6,2.4,1.7c0,3.8,0,7.6,0,11.3c0,4.5,0,9.1,0,13.6c0,0.6,0,0.6-0.8,0.6
				c-0.6,0-1.3,0-1.9,0c-0.4,0-0.5-0.1-0.5-0.4c0-2.4,0-4.8,0-7.2C95.2,44,95.2,43.9,95.2,43.6z M71.5,43.6c0,1.6,0,3.2,0,4.8
				c0,0.3,0.2,0.2,0.5,0.2c1.4,0,2.7,0,4.1,0c0.4,0,0.7,0,1.1,0c0-1.7,0-3.4,0-5.1C75.3,43.6,73.4,43.6,71.5,43.6z M80.5,43.6
				c0,1.7,0,3.3,0,4.9c0,0.3,0.2,0.2,0.5,0.2c1.3,0,2.5,0,3.8,0c0.5,0,0.9,0,1.4,0c0-0.1,0.1-0.1,0.1-0.2c0-1.6,0-3.1,0-4.7
				c0-0.2-0.2-0.3-0.4-0.3c-0.7,0-1.4,0-2.1,0C82.6,43.6,81.6,43.6,80.5,43.6z M71.5,27.6c0,1.7,0,3.2,0,4.8c0,0.1,0.3,0.2,0.4,0.2
				c0.7,0,1.5,0,2.2,0c1,0,2,0,2.9,0c0.1-0.1,0.1-0.1,0.1-0.1c0-1.6,0-3.1,0-4.7c0-0.1-0.2-0.2-0.4-0.2c-0.4,0-0.8,0-1.2,0
				C74.3,27.6,72.9,27.6,71.5,27.6z M80.5,27.6c0,1.7,0,3.3,0,5c1.9,0,3.8,0,5.7,0c0-1.7,0-3.3,0-5C84.3,27.6,82.4,27.6,80.5,27.6z
				 M95.2,32.6c0-1.6,0-3.1,0-4.6c0-0.3-0.1-0.4-0.6-0.4c-1.4,0-2.9,0-4.3,0c-0.3,0-0.6,0-0.8,0c0,0.1,0,0.2,0,0.2c0,1.5,0,3,0,4.5
				c0,0.2,0.1,0.3,0.4,0.3c1.2,0,2.5,0,3.7,0C94.2,32.6,94.7,32.6,95.2,32.6z M71.5,35.6c0,1.6,0,3.2,0,4.8c0,0.3,0.3,0.3,0.5,0.3
				c1.4,0,2.9,0,4.3,0c0.3,0,0.6,0,0.9,0c0-1.7,0-3.3,0-5C75.3,35.6,73.4,35.6,71.5,35.6z M80.5,40.6c1.9,0,3.8,0,5.7,0
				c0-0.1,0.1-0.1,0.1-0.1c0-1.5,0-3.1,0-4.6c0-0.3-0.2-0.3-0.5-0.3c-1.6,0-3.1,0-4.7,0c-0.2,0-0.4,0-0.6,0
				C80.5,37.3,80.5,38.9,80.5,40.6z M89.6,35.6c0,0.1,0,0.1,0,0.2c0,1.5,0,3,0,4.6c0,0.3,0.2,0.3,0.5,0.3c1.3,0,2.6,0,3.9,0
				c0.5,0,0.9,0,1.4,0c0-1.7,0-3.4,0-5C93.3,35.6,91.4,35.6,89.6,35.6z"/>
			<path class="st1" d="M71.5,43.6c1.9,0,3.8,0,5.7,0c0,1.7,0,3.4,0,5.1c-0.4,0-0.8,0-1.1,0c-1.4,0-2.7,0-4.1,0
				c-0.2,0-0.5,0-0.5-0.2C71.5,46.9,71.5,45.3,71.5,43.6z"/>
			<path class="st1" d="M80.5,43.6c1.1,0,2.1,0,3.2,0c0.7,0,1.4,0,2.1,0c0.3,0,0.4,0,0.4,0.3c0,1.6,0,3.1,0,4.7c0,0,0,0.1-0.1,0.2
				c-0.5,0-0.9,0-1.4,0c-1.3,0-2.5,0-3.8,0c-0.2,0-0.5,0-0.5-0.2C80.5,46.9,80.5,45.3,80.5,43.6z"/>
			<path class="st1" d="M71.5,27.6c1.4,0,2.8,0,4.1,0c0.4,0,0.8,0,1.2,0c0.1,0,0.4,0.1,0.4,0.2c0,1.6,0,3.1,0,4.7c0,0,0,0-0.1,0.1
				c-1,0-1.9,0-2.9,0c-0.7,0-1.5,0-2.2,0c-0.2,0-0.4-0.1-0.4-0.2C71.5,30.8,71.5,29.2,71.5,27.6z"/>
			<path class="st1" d="M80.5,27.6c1.9,0,3.7,0,5.7,0c0,1.7,0,3.3,0,5c-1.9,0-3.7,0-5.7,0C80.5,30.9,80.5,29.3,80.5,27.6z"/>
			<path class="st1" d="M95.2,32.6c-0.6,0-1.1,0-1.6,0c-1.2,0-2.5,0-3.7,0c-0.3,0-0.4-0.1-0.4-0.3c0-1.5,0-3,0-4.5
				c0-0.1,0-0.1,0-0.2c0.3,0,0.6,0,0.8,0c1.4,0,2.9,0,4.3,0c0.4,0,0.6,0.1,0.6,0.4C95.2,29.5,95.2,31,95.2,32.6z"/>
			<path class="st1" d="M71.5,35.6c1.9,0,3.8,0,5.7,0c0,1.7,0,3.3,0,5c-0.3,0-0.6,0-0.9,0c-1.4,0-2.9,0-4.3,0c-0.2,0-0.5,0-0.5-0.3
				C71.5,38.8,71.5,37.2,71.5,35.6z"/>
			<path class="st1" d="M80.5,40.6c0-1.7,0-3.3,0-5c0.2,0,0.4,0,0.6,0c1.6,0,3.1,0,4.7,0c0.3,0,0.5,0,0.5,0.3c0,1.5,0,3.1,0,4.6
				c0,0,0,0.1-0.1,0.1C84.3,40.6,82.4,40.6,80.5,40.6z"/>
			<path class="st1" d="M89.6,35.6c1.9,0,3.7,0,5.6,0c0,1.7,0,3.3,0,5c-0.5,0-0.9,0-1.4,0c-1.3,0-2.6,0-3.9,0c-0.3,0-0.5,0-0.5-0.3
				c0-1.5,0-3,0-4.6C89.5,35.7,89.5,35.7,89.6,35.6z"/>
		</g>
	</g>
</g>
<g id="Ebene_8" class="st8">
	<g class="st19">
		<g>
			<path class="st1" d="M69.1,0C73,0,77,0,80.9,0c1.7,0.2,3.4,0.4,5.1,0.7C100.9,3,114,9.1,125.2,19.2
				c11.8,10.7,19.5,23.9,23.1,39.4c0.8,3.5,1.1,7,1.7,10.5c0,3.9,0,7.8,0,11.7c-0.1,0.5-0.2,1-0.3,1.6c-1.1,11-4.4,21.3-10.1,30.8
				c-11.7,19.1-28.5,31.1-50.5,35.5c-2.7,0.6-5.5,0.8-8.2,1.3c-3.9,0-7.8,0-11.7,0c-0.3-0.1-0.7-0.2-1-0.2
				c-19.7-2-36.1-10.3-49.3-25c-8.9-10-14.7-21.6-17.4-34.7C0.8,87,0.5,83.9,0,80.9C0,77,0,73,0,69.1c0.1-0.4,0.2-0.9,0.2-1.3
				C1.5,55,5.7,43.1,13.1,32.5C24.5,16.2,39.9,5.9,59.3,1.5C62.6,0.8,65.9,0.5,69.1,0z M76.6,59.2c-0.2,0-0.7-0.1-1.2-0.1
				c-7.4-1-12.3-7.7-11.2-14.6c0.1-0.9,0-1.3-1-1.2c-6.5,1-13,2-19.5,3c-0.8,0.1-1.1,0.6-0.9,1.3c0.1,0.4,0.1,0.9,0.2,1.3
				c1.4,9.2,2.9,18.4,4.3,27.6c1.5,9.5,3,19.1,4.4,28.6c0.3,1.9,0.3,2,2.2,1.7c18.3-2.6,36.6-5.2,54.9-8c3.4-0.5,6.7-1.2,10.1-1.8
				c0.7-0.1,1.6-0.2,1-1.4c-2.2-4.1-3.2-8.6-4.3-13c-3.8-14.7-6.7-29.5-9.5-44.4c-0.2-1.2-0.6-1.6-1.9-1.4
				c-4.7,0.8-9.4,1.5-14.2,2.2c-1.9,0.3-1.9,0.3-1.2,2.1C92.4,49.8,86.2,59.1,76.6,59.2z M39.3,66.9c-0.1,0-0.3,0-0.4,0
				c-0.7,2.5-1.3,5.1-2,7.6c-2.4,8.9-4.8,17.8-7.2,26.7c-0.5,1.8-0.4,2,1.4,2.5c3.8,1.1,7.7,2.2,11.5,3.3c3.2,0.9,3.2,0.9,2.7-2.3
				c-1.5-9.8-3.1-19.7-4.6-29.5C40.2,72.4,39.7,69.7,39.3,66.9z M61.3,112c0,0.1,0,0.2,0,0.3c2.5,0.7,5,1.4,7.5,2.1
				c5.5,1.5,11,3,16.5,4.5c3,0.8,6,1.5,8.9,2.2c0.9,0.2,1.6,0.2,1.5-1c-0.3-3.8,0.4-7.5,0.9-11.2c0.2-1.9,0-2-1.8-1.8
				c-5.7,0.9-11.4,1.7-17.1,2.5C72.3,110.5,66.8,111.2,61.3,112z M70.3,37.3c-2.6,1.9-3.6,6.1-2.5,9.5c1.3,4,5.1,6.7,9.3,6.7
				c3.8,0,7.7-2.8,8.9-6.5c1.2-3.5,0.2-7.7-2.3-9.6c-1.7,5.3-3.7,7.2-7.1,7C73.1,44.2,71,41.9,70.3,37.3z M71.2,34.3
				c0,3.4,2.3,5.8,5.6,5.8c3.4,0,5.9-2.3,6-5.6c0.1-3.3-2.5-5.9-5.8-5.9C73.7,28.6,71.2,31,71.2,34.3z"/>
		</g>
		<g>
			<path class="st2" d="M106,90.5l-44.7,9.1c-2.9,0.6-5.8-1.3-6.4-4.2L51.4,78c-0.6-2.9,1.3-5.8,4.2-6.4l44.7-9.1
				c2.9-0.6,5.8,1.3,6.4,4.2l3.5,17.4C110.8,87,109,89.9,106,90.5z"/>
			<text transform="matrix(1.068 -0.2181 0.2401 1.1757 58.6079 94.107)" class="st3 st4 st21">JOB</text>
		</g>
	</g>
</g>
</svg>
